D:\school\WTK\thesis\model\3dpredictsim\Results\Batchsim_tmt_linear_v2\Pog_s1_tmt_bCst_d00_k2000_ig24_pas_GRF.mot
nRows=17
nColumns=19

name D:\school\WTK\thesis\model\3dpredictsim\Results\Batchsim_tmt_linear_v2\Pog_s1_tmt_bCst_d00_k2000_ig24_pas_GRF.mot
datacolumns 19
datarows 17
range 0.5364108678 0.7080623454
endheader
time 	ground_force_vx	ground_force_vy	ground_force_vz	ground_force_px	ground_force_py	ground_force_pz	1_ground_force_vx	1_ground_force_vy	1_ground_force_vz	1_ground_force_px	1_ground_force_py	1_ground_force_pz	ground_torque_x	ground_torque_y	ground_torque_z	1_ground_torque_x	1_ground_torque_y	1_ground_torque_z
        0.5364108678	      124.5930981970	      519.8754325129	       -4.5252138821	        0.3241497244	        0.0000000000	        0.0490471334	      -61.3422826930	       42.4520939735	      -10.1615267477	        0.8297192579	        0.0000000000	       -0.0471372808	        0.0000000000	        0.0000000000	        0.0000000000	        0.0000000000	        0.0000000000	        0.0000000000	
        0.5471390851	       98.2319395312	      432.0639590261	        0.5516211034	        0.3344796708	        0.0000000000	        0.0476720825	     -113.4270894139	       96.7177295161	      -25.1695390152	        0.8403727674	        0.0000000000	       -0.0453214124	        0.0000000000	        0.0000000000	        0.0000000000	        0.0000000000	        0.0000000000	        0.0000000000	
        0.5578673025	       64.1273863692	      330.9212826646	        6.3903264508	        0.3509732695	        0.0000000000	        0.0451128396	     -115.8508501646	      209.0860593760	      -47.6209073295	        0.8473634921	        0.0000000000	       -0.0443751520	        0.0000000000	        0.0000000000	        0.0000000000	        0.0000000000	        0.0000000000	        0.0000000000	
        0.5685955198	       29.7539499930	      233.6361244644	        5.9504044590	        0.3763546330	        0.0000000000	        0.0406271617	      -61.6142748841	      381.7212920311	       -7.2957893991	        0.8523678155	        0.0000000000	       -0.0436445388	        0.0000000000	        0.0000000000	        0.0000000000	        0.0000000000	        0.0000000000	        0.0000000000	
        0.5793237372	        7.2135695263	      160.4446554447	        8.8482687090	        0.4062881115	        0.0000000000	        0.0333813055	      -73.1046366384	      593.8797824209	        7.0310307744	        0.8608725294	        0.0000000000	       -0.0458304438	        0.0000000000	        0.0000000000	        0.0000000000	        0.0000000000	        0.0000000000	        0.0000000000	
        0.5900519545	       -0.3836335856	      134.0111014105	       12.1560552257	        0.4096993571	        0.0000000000	        0.0324870819	     -111.4900445915	      799.7838467465	       14.6504515593	        0.8693928657	        0.0000000000	       -0.0483947407	        0.0000000000	        0.0000000000	        0.0000000000	        0.0000000000	        0.0000000000	        0.0000000000	
        0.6007801719	       -1.3924143296	      100.8428364338	       14.0216714364	        0.4102738888	        0.0000000000	        0.0327127404	     -127.4325674586	      902.8706809463	       18.0785296132	        0.8751637051	        0.0000000000	       -0.0499813913	        0.0000000000	        0.0000000000	        0.0000000000	        0.0000000000	        0.0000000000	        0.0000000000	
        0.6115083892	       -4.6013699613	       64.2995001673	       13.1015174403	        0.4107087065	        0.0000000000	        0.0328464211	     -124.1103881005	      908.4110977686	       18.5182899144	        0.8793829900	        0.0000000000	       -0.0510160907	        0.0000000000	        0.0000000000	        0.0000000000	        0.0000000000	        0.0000000000	        0.0000000000	
        0.6222366066	       -8.8530824311	       26.3117458132	        6.4921971678	        0.4102992580	        0.0000000000	        0.0325071039	     -113.7258539486	      871.1709342666	       17.9375852383	        0.8830228457	        0.0000000000	       -0.0517659461	        0.0000000000	        0.0000000000	        0.0000000000	        0.0000000000	        0.0000000000	        0.0000000000	
        0.6329648240	        0.1619078588	       -0.1610954571	       -0.0138944809	        0.0000000000	        0.0000000000	        0.0000000000	     -101.2488124263	      831.9774529279	       16.2749869405	        0.8868699260	        0.0000000000	       -0.0524005561	        0.0000000000	        0.0000000000	        0.0000000000	        0.0000000000	        0.0000000000	        0.0000000000	
        0.6436930413	        0.0006018644	       -0.0004926287	        0.0000019454	        0.0000000000	        0.0000000000	        0.0000000000	      -92.3196803234	      806.9246973177	       17.3391439958	        0.8920185198	        0.0000000000	       -0.0530612789	        0.0000000000	        0.0000000000	        0.0000000000	        0.0000000000	        0.0000000000	        0.0000000000	
        0.6544212587	        0.0002200040	       -0.0001564826	        0.0000051544	        0.0000000000	        0.0000000000	        0.0000000000	      -85.0672068389	      784.1610767599	       17.3150804373	        0.8982401662	        0.0000000000	       -0.0532680525	        0.0000000000	        0.0000000000	        0.0000000000	        0.0000000000	        0.0000000000	        0.0000000000	
        0.6651494760	        0.0014592689	       -0.0009303872	        0.0000466316	        0.0000000000	        0.0000000000	        0.0000000000	      -76.6963079485	      748.9096059719	       17.1122843185	        0.9042629245	        0.0000000000	       -0.0533622747	        0.0000000000	        0.0000000000	        0.0000000000	        0.0000000000	        0.0000000000	        0.0000000000	
        0.6758776934	        0.0077821277	       -0.0045477254	        0.0002821026	        0.0000000000	        0.0000000000	        0.0000000000	      -68.6708822703	      712.3375994240	       16.7606164911	        0.9102237077	        0.0000000000	       -0.0533282362	        0.0000000000	        0.0000000000	        0.0000000000	        0.0000000000	        0.0000000000	        0.0000000000	
        0.6866059107	       -0.0578049441	        0.0314556724	       -0.0022547360	        0.0000000000	        0.0000000000	        0.0000000000	      -61.0088213490	      681.0905984167	       16.6466875860	        0.9160509662	        0.0000000000	       -0.0532665124	        0.0000000000	        0.0000000000	        0.0000000000	        0.0000000000	        0.0000000000	        0.0000000000	
        0.6973341281	       -0.0411850442	        0.0211037958	       -0.0016949964	        0.0000000000	        0.0000000000	        0.0000000000	      -53.7980829432	      656.2199242262	       17.0536432846	        0.9215756844	        0.0000000000	       -0.0532028595	        0.0000000000	        0.0000000000	        0.0000000000	        0.0000000000	        0.0000000000	        0.0000000000	
        0.7080623454	       -0.0290071512	        0.0141172436	       -0.0012404400	        0.0000000000	        0.0000000000	        0.0000000000	      -47.3301838281	      637.2123113842	       17.4640410965	        0.9267837424	        0.0000000000	       -0.0531258798	        0.0000000000	        0.0000000000	        0.0000000000	        0.0000000000	        0.0000000000	        0.0000000000	
